<?xml version="1.0" encoding="UTF-8"?>
<svg version="1.1" xmlns="http://www.w3.org/2000/svg" width="77" height="77">
<path d="M0 0 C0.90556641 0.37318359 1.81113281 0.74636719 2.74414062 1.13085938 C9.01420455 3.72585227 9.01420455 3.72585227 11.6875 5.0625 C11.76216101 9.75810343 11.81634101 14.45335443 11.85229492 19.14941406 C11.86729745 20.74387641 11.88770621 22.33829808 11.91381836 23.93261719 C11.95058134 26.23643077 11.96731155 28.5396946 11.98046875 30.84375 C11.99595261 31.54616821 12.01143646 32.24858643 12.02738953 32.97229004 C12.02915035 38.25726225 10.75445859 42.19906803 8.6875 47.0625 C10.6675 47.0625 12.6475 47.0625 14.6875 47.0625 C14.6875 48.3825 14.6875 49.7025 14.6875 51.0625 C13.79998047 51.06636719 13.79998047 51.06636719 12.89453125 51.0703125 C10.38218299 51.19326592 8.12506994 51.43130642 5.6875 52.0625 C3.42896342 54.44498007 3.42896342 54.44498007 2.1953125 56.30078125 C-1.56060331 60.68916993 -7.4107757 64.07439357 -12.84765625 65.92578125 C-18.69666998 66.25021149 -24.42017941 60.90396519 -28.8125 57.375 C-31.3125 55.0625 -31.3125 55.0625 -33.3125 52.0625 C-35.50704681 51.48256301 -35.50704681 51.48256301 -37.9375 51.375 C-38.75476563 51.30925781 -39.57203125 51.24351563 -40.4140625 51.17578125 C-41.04054688 51.13839844 -41.66703125 51.10101563 -42.3125 51.0625 C-42.3125 49.7425 -42.3125 48.4225 -42.3125 47.0625 C-40.3325 47.0625 -38.3525 47.0625 -36.3125 47.0625 C-36.80145752 45.91201172 -37.29041504 44.76152344 -37.79418945 43.57617188 C-39.42306724 39.21621677 -39.70720853 35.45912956 -39.60546875 30.84375 C-39.59910149 29.72873108 -39.59910149 29.72873108 -39.59260559 28.59118652 C-39.57599081 26.24790142 -39.53837454 23.90551923 -39.5 21.5625 C-39.48493078 19.96095004 -39.47124632 18.35938642 -39.45898438 16.7578125 C-39.42614426 12.85903417 -39.37448563 8.96091944 -39.3125 5.0625 C-35.80017415 3.54200484 -32.27645088 2.0499074 -28.75 0.5625 C-27.75935547 0.13324219 -26.76871094 -0.29601562 -25.74804688 -0.73828125 C-15.68307321 -4.95152604 -9.86593087 -4.19750513 0 0 Z " fill="#06A897" transform="translate(52.3125,7.9375)"/>
<path d="M0 0 C0.66 0 1.32 0 2 0 C3.32 2.97 4.64 5.94 6 9 C7.32 6.69 8.64 4.38 10 2 C10.66 2.33 11.32 2.66 12 3 C12 3.66 12 4.32 12 5 C17.94 5 23.88 5 30 5 C27.03590881 12.41022797 21.33848701 15.92131941 14.6875 20.0625 C11.4836612 21.18011819 10.23622279 20.91653609 7 20 C0.64338891 16.68469853 -4.9638111 12.98469388 -9 7 C-9 6.34 -9 5.68 -9 5 C-7.329375 4.87625 -7.329375 4.87625 -5.625 4.75 C-1.94246056 4.42126213 -1.94246056 4.42126213 -0.5625 1.9375 C-0.376875 1.298125 -0.19125 0.65875 0 0 Z " fill="#089895" transform="translate(28,53)"/>
<path d="M0 0 C2.52987918 1.81632351 3.6222415 3.244483 5 6 C5 8 5 8 3.1875 10.25 C1 12 1 12 -1 12 C-0.01 14.97 0.98 17.94 2 21 C2.66 21 3.32 21 4 21 C4.99 17.535 4.99 17.535 6 14 C9 15 9 15 11 18 C13.61690757 18.41709358 13.61690757 18.41709358 16.6640625 18.29296875 C18.34628906 18.2784668 18.34628906 18.2784668 20.0625 18.26367188 C21.238125 18.23853516 22.41375 18.21339844 23.625 18.1875 C24.80835938 18.17396484 25.99171875 18.16042969 27.2109375 18.14648438 C30.14107539 18.11103916 33.07031459 18.06162769 36 18 C36 19.32 36 20.64 36 22 C31.54114074 21.89055285 27.08315844 21.75982334 22.625 21.625 C21.35398438 21.5940625 20.08296875 21.563125 18.7734375 21.53125 C17.56171875 21.49257813 16.35 21.45390625 15.1015625 21.4140625 C13.98088379 21.3826416 12.86020508 21.3512207 11.70556641 21.31884766 C9 21 9 21 7 19 C5.68 21.31 4.36 23.62 3 26 C0.16625119 22.79663178 -0.5205537 20.21912747 -1 16 C-1.66 16 -2.32 16 -3 16 C-3.99 18.475 -3.99 18.475 -5 21 C-10.38490641 21.91657981 -15.54230189 22.11138159 -21 22 C-21 20.68 -21 19.36 -21 18 C-16.05 18 -11.1 18 -6 18 C-5.01 16.02 -4.02 14.04 -3 12 C-5.97 12 -8.94 12 -12 12 C-12.48 4.8 -12.48 4.8 -10.5 1.5 C-6.98210132 -0.61073921 -4.00324076 -0.82202069 0 0 Z " fill="#E2F2F1" transform="translate(31,37)"/>
<path d="M0 0 C2.5 1.5 2.5 1.5 4 4 C4.31584913 6.75841574 4.1862657 9.20601454 4 12 C1.91781638 12.10832169 -0.16599129 12.18573541 -2.25 12.25 C-3.99023438 12.31960937 -3.99023438 12.31960937 -5.765625 12.390625 C-9.57666013 11.93035506 -10.65511755 10.94851556 -13 8 C-10.92780588 0.66762081 -7.56626903 -1.18746275 0 0 Z " fill="#F9FCFB" transform="translate(54,37)"/>
<path d="M0 0 C2.5 0.125 2.5 0.125 3.5 1.125 C3.21269945 3.46444736 2.88063221 5.7989143 2.5 8.125 C3.49 8.455 4.48 8.785 5.5 9.125 C6.85439668 11.83379335 6.56501451 14.13433268 6.5 17.125 C1.94615385 17.49423077 1.94615385 17.49423077 -0.3125 15.625 C-0.704375 15.13 -1.09625 14.635 -1.5 14.125 C-2.16 16.435 -2.82 18.745 -3.5 21.125 C-4.16 21.125 -4.82 21.125 -5.5 21.125 C-6.49 18.155 -7.48 15.185 -8.5 12.125 C-7.84 12.125 -7.18 12.125 -6.5 12.125 C-5.84 10.805 -5.18 9.485 -4.5 8.125 C-3.84 8.125 -3.18 8.125 -2.5 8.125 C-2.7784375 6.4234375 -2.7784375 6.4234375 -3.0625 4.6875 C-3.206875 3.511875 -3.35125 2.33625 -3.5 1.125 C-2.5 0.125 -2.5 0.125 0 0 Z " fill="#DBAA3B" transform="translate(38.5,36.875)"/>
<path d="M0 0 C2.66135342 1.91071528 3.71846213 3.15538639 4.75 6.25 C4.87375 7.11625 4.87375 7.11625 5 8 C2.95509935 10.26597099 1.6762262 11.6441803 -1 13 C-4.75547372 13.14424316 -8.30801081 12.66350695 -12 12 C-12.48 4.8 -12.48 4.8 -10.5 1.5 C-6.98210132 -0.61073921 -4.00324076 -0.82202069 0 0 Z " fill="#F9FDFC" transform="translate(31,37)"/>
<path d="M0 0 C2.625 0.375 2.625 0.375 5 1 C6.125 5.75 6.125 5.75 5 8 C3.00045254 8.04254356 0.99958364 8.04080783 -1 8 C-2 7 -2 7 -2.1875 4.5625 C-2 2 -2 2 0 0 Z " fill="#EFF8F8" transform="translate(48,27)"/>
<path d="M0 0 C4.70588235 0.70588235 4.70588235 0.70588235 6 2 C6.125 4.5 6.125 4.5 6 7 C5 8 5 8 2.5625 8.1875 C0 8 0 8 -2 6 C-1.44444444 1.44444444 -1.44444444 1.44444444 0 0 Z " fill="#F0FAF9" transform="translate(25,27)"/>
<path d="M0 0 C2.5 0.125 2.5 0.125 3.5 1.125 C3.625 3.625 3.625 3.625 3.5 6.125 C2.5 7.125 2.5 7.125 0 7.25 C-2.5 7.125 -2.5 7.125 -3.5 6.125 C-3.625 3.625 -3.625 3.625 -3.5 1.125 C-2.5 0.125 -2.5 0.125 0 0 Z " fill="#B8A745" transform="translate(38.5,36.875)"/>
<path d="M0 0 C2.33294775 -0.04241723 4.66702567 -0.04092937 7 0 C7.33 0.33 7.66 0.66 8 1 C10.32817964 1.36760731 12.6618385 1.70241581 15 2 C15 2.33 15 2.66 15 3 C9.94997778 4.03590199 5.12583611 4.10251672 0 4 C0 2.68 0 1.36 0 0 Z " fill="#FCFDFD" transform="translate(10,55)"/>
<path d="M0 0 C2.31 0 4.62 0 7 0 C7 1.32 7 2.64 7 4 C4.03 4 1.06 4 -2 4 C-1.34 2.68 -0.68 1.36 0 0 Z " fill="#FDFEFE" transform="translate(60,55)"/>
<path d="M0 0 C0.99 0.99 1.98 1.98 3 3 C2.01 3.33 1.02 3.66 0 4 C-1.21869929 6.50447516 -1.21869929 6.50447516 -2 9 C-4.64 8.67 -7.28 8.34 -10 8 C-10 7.67 -10 7.34 -10 7 C-8.906875 6.95875 -7.81375 6.9175 -6.6875 6.875 C-2.75003667 6.39434602 -2.75003667 6.39434602 -1.0625 2.9375 C-0.711875 1.968125 -0.36125 0.99875 0 0 Z " fill="#DDF3F1" transform="translate(28,49)"/>
<path d="M0 0 C3 1 3 1 4.1875 3.0625 C4.455625 3.701875 4.72375 4.34125 5 5 C4.34 5.66 3.68 6.32 3 7 C2.34 6.34 1.68 5.68 1 5 C0.34 4.67 -0.32 4.34 -1 4 C-0.67 2.68 -0.34 1.36 0 0 Z " fill="#E2E8D7" transform="translate(37,51)"/>
</svg>
